<svg xmlns="http://www.w3.org/2000/svg" viewBox="0 0 921.41 1004.89"><title>KhopdiBabaBlack</title><g id="Layer_2" data-name="Layer 2"><path d="M105.27,535.22C46.42,336.85,96.55,9.89,530.33,9.89,861.66,9.89,990.27,308.52,914,528.68l34.87-52.32C959.71,487,967,501.79,969.69,526.73a51.23,51.23,0,0,1-2.63,22.81c-22.17,62-39,116.9-61.8,179.68l-67.58,8.72c29.51-49.18,50.14-117.87,55.49-143.63a20.19,20.19,0,0,0-1.54-12.76c-3.89-8.17-20.78-29.58-29.33-40.19a13.62,13.62,0,0,1-2-13.56C973.45,240.13,755.1,66.47,530.33,55.66,173.56,55.66,62.6,316.3,155.67,522.1a16.44,16.44,0,0,1-2,16.92c-15.92,20.33-38.35,44.08-28.77,59.41,6.54,30.52,54.49,139.51,54.49,139.51-22.73,1.32-55.39.37-67.57-24-24-48-63.59-142.25-63.21-178.74.29-28.69,10-32.37,15.26-52.32C68,467.1,105.27,535.22,105.27,535.22Z" transform="translate(-48.59 -9.89)"/></g><g id="Layer_4" data-name="Layer 4"><path d="M781,509.06l-1.51-48.23a3.88,3.88,0,0,1,7.44-1.64c9.68,22.93,25.39,57.35,31.12,54.23,24-13.08,56.68-198.36,2.18-242L441,504.7,676.38,234.4l-191.82,109L619.7,186.45,358.13,343.39,521.61,162.47,338.51,273.64,506.35,94.9C464.94,81.82,74.75,145,192.46,509.06c0,0,19.62,6.54,45.78-52.32,0,0,5,37.38-4.36,54.5-13.08,24-40.91,37.84-61,69.75-33.57,53.23,66.73,211.09,93.73,222.34,26.15,10.9,79.62-22.75,133-19.62,37.06,2.18,48,69.76,48,69.76-24-15.26-52.32-52.32-85-32.7l61,104.63h32.7l13.08-34.88,13.08,34.88h52.31l13.08-37.06,13.08,37.06h32.7c8.71-39.24,63.21-104.63,63.21-104.63-34.88-24-82.83,30.52-82.83,30.52s-.85-44.43,24-61c42.07-28.14,120.54,33.8,150.4,15.26,46.3-28.74,80.91-124.14,96.11-173.12a65.64,65.64,0,0,0-9.35-57.84C821.93,556.3,805.93,538.38,781,509.06ZM558.67,805.51c-6.32,4.17-26.16-30.52-50.14-30.52-28,0-43.36,36.36-50.13,32.7-5.91-3.18,17.44-30.52,26.16-71.93,4.7-22.37,15.25-63.22,24-63.22,10.9,0,15.56,17.94,24,56.68C543.41,779.35,563.78,802.14,558.67,805.51Zm98.09-63.21c-80.65,0-81.59-85-148.23-85-54.49,0-54.49,80.66-146,85-50.13,2.38-119.89-78.48-119.89-126.43S284.86,559,314.53,557c80-5.46,130.66,87.14,163.49,69.76,17.18-9.1,24.92-55.19,28.23-86.33a2,2,0,0,1,4,0c3,36.07,10.86,92.48,31,90.65,24-2.18,99.29-73.65,150.41-69.76,37.13,2.83,78.23,6.57,82.83,48C778.83,648.57,715.61,742.3,656.76,742.3Z" transform="translate(-48.59 -9.89)"/></g><g id="Layer_5" data-name="Layer 5"><path d="M824.6,770.63c13.81-2.9,29.79-3.63,43.6-6.53C765.75,931.94,682.92,993,682.92,993H632.78q-8.71,10.9-17.44,21.8h-146c-13.81-21.8-25.43-41.41-39.24-63.21H595.73s14.43,12.89,24,13.08q31.2.58,61,0C728.69,900,759.21,892.7,824.6,770.63Z" transform="translate(-48.59 -9.89)"/></g></svg>