<svg xmlns="http://www.w3.org/2000/svg" viewBox="0 0 811.14 986.18"><defs><style>.cls-1{font-size:157.76px;font-family:SamarkanNormal, Samarkan;}</style></defs><title>KhopdiBabaBlackWithText</title><g id="Layer_2" data-name="Layer 2"><path d="M230.85,391.16c-40.7-137.2-6-363.34,294-363.34C754,27.82,843,234.36,790.19,386.64l24.12-36.19c7.51,7.35,12.53,17.59,14.41,34.84a35.4,35.4,0,0,1-1.81,15.78c-15.34,42.87-27,80.85-42.75,124.27l-46.74,6c20.41-34,34.68-81.53,38.38-99.34a14,14,0,0,0-1.06-8.82c-2.69-5.66-14.38-20.46-20.29-27.8a9.39,9.39,0,0,1-1.39-9.38C831.32,187.07,680.31,67,524.85,59.48c-246.76,0-323.51,180.27-259.14,322.61a11.38,11.38,0,0,1-1.38,11.7c-11,14.06-26.53,30.49-19.91,41.09,4.53,21.11,37.69,96.49,37.69,96.49-15.72.91-38.31.26-46.73-16.58-16.59-33.17-44-98.39-43.72-123.63.2-19.84,6.93-22.39,10.55-36.18C205.08,344,230.85,391.16,230.85,391.16Z" transform="translate(-123.39 -27.82)"/></g><g id="Layer_4" data-name="Layer 4"><path d="M698.22,373.07l-1-33.36a2.68,2.68,0,0,1,5.15-1.13c6.69,15.86,17.56,39.66,21.52,37.5,16.59-9,39.2-137.19,1.51-167.35L463,370.05l162.83-187L493.18,258.49l93.48-108.55L405.74,258.49,518.81,133.35,392.17,210.24,508.26,86.61c-28.64-9-298.51,34.68-217.1,286.46,0,0,13.57,4.52,31.66-36.19,0,0,3.44,25.86-3,37.69-9.05,16.59-28.3,26.18-42.22,48.25-23.22,36.82,46.16,146,64.83,153.78,18.09,7.54,55.07-15.74,92-13.57,25.63,1.51,33.17,48.25,33.17,48.25-16.59-10.56-36.19-36.19-58.8-22.62L451,661h22.62l9-24.13L491.68,661h36.18l9-25.63L546,661h22.62c6-27.14,43.72-72.37,43.72-72.37C588.17,572.08,555,609.77,555,609.77s-.59-30.73,16.58-42.22c29.11-19.46,83.38,23.38,104,10.56,32-19.88,56-85.86,66.48-119.74a45.44,45.44,0,0,0-6.47-40C726.53,405.74,715.46,393.35,698.22,373.07Zm-153.78,205C540.07,581,526.35,557,509.77,557c-19.37,0-30,25.14-34.68,22.61-4.08-2.2,12.06-21.1,18.09-49.75,3.26-15.46,10.56-43.72,16.59-43.72,7.54,0,10.76,12.41,16.58,39.2C533.89,560,548,575.78,544.44,578.11Zm67.85-43.72c-55.78,0-56.43-58.8-102.52-58.8-37.69,0-37.69,55.78-101,58.8-34.67,1.65-82.92-54.28-82.92-87.45s29.22-39.3,49.75-40.7c55.33-3.78,90.37,60.26,113.07,48.24,11.88-6.29,17.24-38.17,19.53-59.71a1.39,1.39,0,0,1,2.76,0c2.06,24.95,7.51,64,21.43,62.7,16.59-1.51,68.68-50.94,104-48.25,25.69,2,54.11,4.54,57.29,33.17C696.72,469.56,653,534.39,612.29,534.39Z" transform="translate(-123.39 -27.82)"/></g><g id="Layer_5" data-name="Layer 5"><path d="M728.38,554c9.55-2,20.6-2.51,30.15-4.52-70.86,116.09-128.15,158.3-128.15,158.3H595.7l-12.06,15.08h-101c-9.55-15.08-17.59-28.64-27.14-43.72H570.07s10,8.92,16.59,9q21.58.42,42.21,0C662,643.44,683.15,638.41,728.38,554Z" transform="translate(-123.39 -27.82)"/><text class="cls-1" transform="translate(12.15 934.26)">khopdi baba</text></g></svg>