<svg xmlns="http://www.w3.org/2000/svg" viewBox="0 0 912.68 995.37"><defs><style>.cls-1{fill:#fff;}</style></defs><title>KhopdiBaba</title><g id="Layer_2" data-name="Layer 2"><path class="cls-1" d="M116.15,535c-58.3-196.49-8.64-520.36,421-520.36,328.19,0,455.58,295.8,380,513.88l34.55-51.82c10.76,10.52,17.93,25.19,20.64,49.89a50.83,50.83,0,0,1-2.6,22.59c-22,61.4-38.67,115.8-61.22,178l-66.94,8.64c29.23-48.71,49.66-116.76,55-142.27a20,20,0,0,0-1.52-12.64c-3.85-8.09-20.59-29.3-29.06-39.81a13.51,13.51,0,0,1-2-13.44C976.1,242.7,759.83,70.68,537.18,60,183.79,60,73.88,318.14,166.07,522a16.29,16.29,0,0,1-2,16.75c-15.78,20.14-38,43.67-28.5,58.85,6.48,30.23,54,138.19,54,138.19-22.52,1.3-54.88.37-66.94-23.75-23.75-47.51-63-140.9-62.61-177,.29-28.42,9.93-32.06,15.11-51.82C79.23,467.51,116.15,535,116.15,535Z" transform="translate(-60.01 -14.63)"/></g><g id="Layer_4" data-name="Layer 4"><path class="cls-1" d="M785.49,509.08,784,461.3a3.84,3.84,0,0,1,7.37-1.62c9.59,22.71,25.16,56.81,30.83,53.71,23.75-12.95,56.14-196.48,2.16-239.66l-375.69,231L681.85,237l-190,108L625.71,189.52,366.61,345,528.55,165.77,347.18,275.89l166.25-177c-41-13-427.51,49.66-310.92,410.24,0,0,19.44,6.47,45.35-51.82,0,0,4.92,37-4.32,54-13,23.76-40.53,37.49-60.46,69.1-33.25,52.73,66.1,209.09,92.84,220.23,25.91,10.8,78.87-22.54,131.71-19.43,36.71,2.16,47.5,69.09,47.5,69.09-23.75-15.11-51.82-51.82-84.2-32.38l60.45,103.63h32.39l13-34.54,12.95,34.54H541.5l13-36.7,12.95,36.7H599.8c8.63-38.86,62.61-103.63,62.61-103.63-34.54-23.76-82,30.22-82,30.22s-.85-44,23.75-60.45c41.68-27.88,119.4,33.47,149,15.11,45.86-28.47,80.14-123,95.2-171.48a65.06,65.06,0,0,0-9.26-57.3C826,555.87,810.17,538.12,785.49,509.08ZM565.25,802.72c-6.26,4.13-25.91-30.23-49.66-30.23-27.74,0-43,36-49.66,32.39-5.85-3.16,17.27-30.23,25.91-71.25C496.5,711.48,507,671,515.59,671c10.8,0,15.41,17.77,23.75,56.14C550.14,776.81,570.32,799.38,565.25,802.72Zm97.16-62.61c-79.89,0-80.82-84.21-146.82-84.21-54,0-54,79.89-144.66,84.21-49.65,2.36-118.76-77.73-118.76-125.24s41.86-56.29,71.26-58.29c79.24-5.42,129.42,86.31,161.93,69.09,17-9,24.69-54.66,28-85.51a2,2,0,0,1,3.95,0c3,35.73,10.76,91.6,30.7,89.79,23.75-2.16,98.35-73,149-69.09,36.78,2.8,77.49,6.5,82,47.5C783.33,647.26,720.71,740.11,662.41,740.11Z" transform="translate(-60.01 -14.63)"/></g><g id="Layer_5" data-name="Layer 5"><path class="cls-1" d="M828.67,768.17c13.67-2.87,29.51-3.59,43.18-6.47C770.37,928,688.32,988.41,688.32,988.41H638.66L621.39,1010H476.73c-13.68-21.59-25.19-41-38.87-62.62H602s14.3,12.78,23.75,13q30.9.58,60.45,0C733.67,896.28,763.89,889.09,828.67,768.17Z" transform="translate(-60.01 -14.63)"/></g></svg>